<?xml version="1.0" encoding="utf-8"?>
<!-- Generator: Adobe Illustrator 24.3.0, SVG Export Plug-In . SVG Version: 6.00 Build 0)  -->
<svg version="1.1" id="Layer_1" xmlns="http://www.w3.org/2000/svg" xmlns:xlink="http://www.w3.org/1999/xlink" x="0px" y="0px"
	 viewBox="0 0 32 32" style="enable-background:new 0 0 32 32;" xml:space="preserve">
<style type="text/css">
	.st0{fill:#2C473E;}
	.st1{fill:#FEFFFE;}
	.st2{fill:#B0D182;}
	.st3{fill:#94999D;}
	.st4{fill:#6A8E4E;}
</style>
<g>
	<path class="st0" d="M0,8.4C0,3.8,3.8,0,8.4,0h15.2C28.2,0,32,3.8,32,8.4v15.2c0,4.7-3.8,8.4-8.4,8.4H8.4C3.8,32,0,28.2,0,23.6V8.4
		z"/>
	<path class="st1" d="M20.9,15.2C20.9,15.2,20.9,15.2,20.9,15.2L20.9,15.2z"/>
	<path class="st2" d="M25.7,11.2c0,0.7-0.5,1.2-1.2,1.2s-1.2-0.5-1.2-1.2c0-0.7,0.5-1.2,1.2-1.2S25.7,10.5,25.7,11.2"/>
	<path class="st3" d="M20.9,11.8L20.9,11.8c-0.1,0.2-0.2,0.5-0.4,0.7c0,0,0,0,0,0c-0.3,0.4-0.8,0.8-1.5,1.2c0,0,0,0,0,0
		c-0.2,0.1-0.5,0.2-0.7,0.3c-3.3,1.4-7.4,2.6-9.6,4.1c-0.2-0.1-0.3-0.2-0.4-0.3c0,0,0,0,0,0c0,0-0.1,0-0.1-0.1v0
		c-0.1-0.1-0.2-0.2-0.4-0.3c0,0,0,0,0,0c-0.1-0.1-0.1-0.1-0.2-0.2c0,0,0,0,0,0c0.1-0.2,0.1-0.3,0.2-0.5c0,0,0,0,0-0.1
		c0.1-0.2,0.2-0.3,0.4-0.5l0,0c0.2-0.2,0.5-0.5,0.8-0.6c0.1-0.1,0.2-0.1,0.3-0.2c0,0,0,0,0,0c1.1-0.6,2.2-0.9,3.3-1.3
		c1.1-0.4,2.3-0.8,3.4-1.3c0.2-0.1,0.3-0.1,0.5-0.2c0,0,0,0,0,0h0c0.6-0.3,1.2-0.5,1.8-0.8c0.2-0.1,0.5-0.2,0.7-0.4c0,0,0,0,0,0
		c0.3-0.2,0.5-0.3,0.8-0.5c0,0,0,0,0.1,0c0,0,0,0,0,0c0.4-0.3,0.7-0.7,1-1c0,0,0,0,0,0c0,0,0,0,0,0v0c0,0.2,0,0.4,0,0.6
		C20.9,10.8,20.9,11.3,20.9,11.8"/>
	<path class="st3" d="M8.1,17.8C8.1,17.8,8.1,17.8,8.1,17.8L8.1,17.8C8.1,17.7,8.1,17.8,8.1,17.8"/>
	<path class="st1" d="M7.9,19.8C7.9,19.8,7.9,19.8,7.9,19.8c-0.1-0.2-0.2-0.3-0.3-0.5C7.7,19.5,7.8,19.7,7.9,19.8"/>
	<path class="st1" d="M8.1,17.8C8.1,17.8,8.1,17.8,8.1,17.8L8.1,17.8C8.1,17.7,8.1,17.8,8.1,17.8"/>
	<path class="st1" d="M20.9,11.8c0-0.2-0.3-0.4-0.4-0.5c-0.2-0.2-0.4-0.4-0.7-0.6c0,0,0,0,0,0c-1.4-1.1-3.2-1.7-4.9-2.4
		c-0.7-0.3-1.5-0.5-2.2-0.8c-1-0.4-0.8-1.9,0.3-2c0.2,0,0.5,0,0.7,0.1c1.7,0.5,3.4,1.2,5.1,2c0.6,0.3,1.1,0.6,1.6,1
		c0.2,0.2,0.4,0.5,0.5,0.7c0.1,0.1,0.1,0.2,0.1,0.4c0,0,0,0,0,0c0,0.2,0,0.4,0,0.6C20.9,10.8,20.9,11.3,20.9,11.8"/>
	<path class="st4" d="M20.9,14.4c0,0,0,0.1,0,0.1c0,0,0,0,0,0c0,0.2,0,0.5,0,0.6c0,0,0,0,0,0c0,0,0,0.1,0,0.1c0,0,0,0,0,0
		c0,0,0,0,0,0c0,0,0,0,0,0l0,0v0c0,0,0,0,0,0c0,0,0,0,0,0c-0.3,0.7-1.1,1.5-2.6,2.2c-2,0.9-4.4,1.7-6.4,2.5
		c-0.9,0.4-1.8,0.8-2.5,1.2c-0.3,0.2-0.6,0.4-0.9,0.6c-0.4,0.3-0.7,0.6-1,0.9c0-0.2,0-0.3,0-0.5c0-0.5,0-0.9,0-1.4v0
		c0-0.2,0.1-0.4,0.3-0.7c0-0.1,0.1-0.1,0.1-0.2c0,0,0,0,0,0c0.3-0.4,0.7-0.7,1.1-0.9c0.1-0.1,0.2-0.1,0.3-0.2c0,0,0,0,0,0
		c0,0,0,0,0,0c1-0.6,2.2-0.9,3.3-1.3c1.1-0.4,2.3-0.8,3.4-1.3c0.8-0.3,1.6-0.7,2.3-1c0.5-0.3,1-0.5,1.4-0.8c0,0,0,0,0,0
		c0,0,0.1,0,0.1-0.1c0.4-0.3,0.7-0.6,1-1l0,0c0,0,0,0.1,0,0.1c0.1,0.2,0.1,0.4,0.1,0.5v0c0,0,0,0.1,0,0.1C21,14,21,14.2,20.9,14.4"
		/>
	<path class="st2" d="M20.9,14.4c0,0,0,0.1,0,0.1c0,0,0,0,0,0c0,0.3,0,0.5,0,0.6c0,0,0,0,0,0c0,0,0,0.1,0,0.1c0,0,0,0,0,0
		c0,0,0,0,0,0c0,0,0,0,0,0l0,0v0c0,0,0,0,0,0c0,0,0,0,0,0c-0.1-0.2-0.2-0.2-0.3-0.3c-0.3-0.3-0.6-0.5-0.9-0.7c0,0,0,0,0,0
		c-0.2-0.2-0.5-0.3-0.7-0.5c0,0,0,0,0,0c-0.2-0.1-0.4-0.2-0.6-0.3c-0.6-0.3-1.3-0.6-1.9-0.9c0,0,0,0,0,0c-1.1-0.5-2.2-0.9-3.3-1.3
		c-1.5-0.6-3.1-1.1-4.7-1.6C8.1,9.4,7.8,9.3,7.7,9.1C7.4,8.8,7.4,8.4,7.6,8C7.8,7.5,8.3,7.3,9,7.5c1.7,0.6,3.4,1.1,5.2,1.8
		c1.6,0.6,3.3,1.2,4.9,2c0,0,0,0,0,0c0.1,0.1,0.2,0.1,0.3,0.2c0.1,0,0.1,0.1,0.2,0.1c0.4,0.2,0.7,0.5,1,0.9c0,0,0,0,0,0
		c0.1,0.2,0.3,0.4,0.3,0.6c0,0,0,0,0,0c0,0,0,0.1,0,0.1c0.1,0.2,0.1,0.4,0.1,0.5c0,0,0,0.1,0,0.1C21,14,21,14.2,20.9,14.4"/>
	<polygon class="st1" points="8,20 8,20 8,20 	"/>
	<path class="st1" d="M25.6,25.2v0.2c0,0,0,0,0,0c0,0.1-0.1,0.3-0.1,0.4c-0.2,0.4-0.5,0.6-0.9,0.6c-0.2,0-0.3,0-0.5-0.1
		c-0.2-0.1-0.4-0.1-0.7-0.2c0,0-0.1,0-0.1,0c-2.4-0.8-7.5-2.3-9-2.9c-1.7-0.6-3.4-1.2-4.9-2.1h0c-0.1,0-0.1-0.1-0.2-0.1
		c-0.1,0-0.1-0.1-0.2-0.1C8.6,20.6,8.3,20.3,8,20v0h0c0,0,0,0,0,0c0,0,0-0.1-0.1-0.1c0,0,0,0,0,0c0,0,0,0,0-0.1
		c-0.1-0.1-0.1-0.2-0.2-0.4c0,0,0,0,0,0c-0.2-0.5-0.5-1.3-0.2-2.1c0,0,0,0,0,0c0.1,0.1,0.1,0.1,0.2,0.2c0,0,0,0,0,0
		c0.1,0.1,0.3,0.3,0.4,0.3c0,0,0.1,0,0.1,0.1c0,0,0,0,0,0c0.1,0.1,0.3,0.2,0.4,0.3c0.2,0.2,0.5,0.3,0.7,0.5c0.2,0.1,0.5,0.3,0.7,0.4
		c0.6,0.3,1.2,0.6,1.8,0.8h0c1.1,0.5,2.2,0.9,3.4,1.3c1.3,0.5,5.7,1.9,8.1,2.6c0,0,0.1,0,0.1,0c0.5,0.2,0.8,0.3,1.1,0.4
		c0.4,0.1,0.7,0.3,0.8,0.5C25.5,24.8,25.6,25,25.6,25.2C25.6,25.2,25.6,25.2,25.6,25.2"/>
	<path class="st2" d="M15.5,26.9c-0.2,0-0.5,0-0.7-0.1c-1.7-0.5-3.4-1.2-5.1-2c-0.6-0.3-1.1-0.6-1.6-1c-0.2-0.2-0.4-0.5-0.5-0.7
		c-0.1-0.2-0.1-0.3-0.1-0.5c0-0.2,0-0.3,0-0.5c0-0.5,0-0.9,0-1.4c0,0.1,0.3,0.4,0.4,0.5c0.2,0.2,0.4,0.3,0.6,0.5
		c0,0,0.1,0.1,0.1,0.1c1.4,1.1,3.2,1.7,4.9,2.4c0.7,0.3,1.5,0.5,2.2,0.8C16.7,25.2,16.6,26.8,15.5,26.9"/>
	<polygon class="st2" points="7.3,8 7.9,10.2 9.2,6.7 	"/>
	<path class="st1" d="M25.6,14.1v11.2c0,0.1,0,0.1,0,0.2c0,0.1-0.1,0.2-0.1,0.3c-0.2,0.4-0.5,0.6-0.9,0.6c-0.2,0-0.3,0-0.5-0.1
		c0,0,0,0,0,0c-0.4-0.1-0.7-0.5-0.7-0.9V14.1c0-0.5,0.4-1,1-1h0.3C25.2,13.2,25.6,13.6,25.6,14.1"/>
</g>
</svg>
