<svg width="176" height="32" viewBox="0 0 176 32" fill="none" xmlns="http://www.w3.org/2000/svg">
<rect x="110" y="9" width="32" height="17" rx="5" fill="#B0D182"/>
<path d="M43.3001 22.3H51.5001V25.4H39.1001V22.6L47.2001 10.3H39.1001V7.30002H51.5001V10.1L43.3001 22.3Z" fill="white"/>
<path d="M54.5001 14.3C55.1001 13.2 55.9001 12.3 56.9001 11.7C57.9001 11.1 59.0001 10.8 60.2001 10.8C61.3001 10.8 62.2001 11 63.0001 11.5C63.8001 11.9 64.5001 12.5 64.9001 13.1V11H68.6001V25.4H65.0001V23.3C64.5001 24 63.8001 24.5 63.0001 25C62.2001 25.4 61.2001 25.7 60.2001 25.7C59.0001 25.7 57.9001 25.4 56.9001 24.8C55.9001 24.2 55.1001 23.3 54.5001 22.2C53.9001 21.1 53.6001 19.8 53.6001 18.3C53.6001 16.7 53.9001 15.4 54.5001 14.3ZM64.4001 15.9C64.1001 15.3 63.6001 14.8 63.0001 14.4C62.4001 14.1 61.8001 13.9 61.1001 13.9C60.4001 13.9 59.8001 14.1 59.2001 14.4C58.6001 14.7 58.2001 15.2 57.8001 15.8C57.4001 16.4 57.3001 17.2 57.3001 18C57.3001 18.9 57.5001 19.6 57.8001 20.3C58.2001 20.9 58.6001 21.4 59.2001 21.8C59.8001 22.1 60.4001 22.3 61.1001 22.3C61.8001 22.3 62.4001 22.1 63.0001 21.8C63.6001 21.5 64.1001 21 64.4001 20.3C64.7001 19.6 64.9001 18.9 64.9001 18C64.9001 17.1 64.8001 16.6 64.4001 15.9Z" fill="white"/>
<path d="M72.1002 14.3C72.7002 13.2 73.5002 12.3 74.5002 11.7C75.5002 11.1 76.6002 10.8 77.8002 10.8C78.9002 10.8 79.8002 11 80.6002 11.5C81.4002 11.9 82.1002 12.5 82.5002 13.1V11H86.2002V25.4H82.5002V23.3C82.0002 24 81.4002 24.5 80.6002 25C79.8002 25.4 78.8002 25.7 77.8002 25.7C76.6002 25.7 75.5002 25.4 74.5002 24.8C73.5002 24.2 72.7002 23.3 72.1002 22.2C71.5002 21.1 71.2002 19.8 71.2002 18.3C71.2002 16.7 71.5002 15.4 72.1002 14.3ZM82.1002 15.9C81.8002 15.3 81.3002 14.8 80.7002 14.4C80.1002 14.1 79.5002 13.9 78.8002 13.9C78.1002 13.9 77.5002 14.1 76.9002 14.4C76.3002 14.7 75.9002 15.2 75.5002 15.8C75.1002 16.4 75.0002 17.2 75.0002 18C75.0002 18.9 75.2002 19.6 75.5002 20.3C75.9002 20.9 76.3002 21.4 76.9002 21.8C77.5002 22.1 78.1002 22.3 78.8002 22.3C79.5002 22.3 80.1002 22.1 80.7002 21.8C81.3002 21.5 81.8002 21 82.1002 20.3C82.4002 19.6 82.6002 18.9 82.6002 18C82.6002 17.1 82.4002 16.6 82.1002 15.9Z" fill="white"/>
<path d="M89.7001 14.3C90.3001 13.2 91.1001 12.3 92.1001 11.7C93.1001 11.1 94.2001 10.8 95.5001 10.8C96.4001 10.8 97.3001 11 98.2001 11.4C99.0001 11.8 99.7001 12.3 100.2 13V6.20001H103.9V25.4H100.2V23.3C99.7001 24 99.1001 24.6 98.3001 25C97.5001 25.4 96.5001 25.7 95.5001 25.7C94.3001 25.7 93.2001 25.4 92.2001 24.8C91.2001 24.2 90.4001 23.3 89.8001 22.2C89.2001 21.1 88.9001 19.8 88.9001 18.3C88.9001 16.7 89.2001 15.4 89.7001 14.3ZM99.7001 15.9C99.4001 15.3 98.9001 14.8 98.3001 14.4C97.7001 14.1 97.1001 13.9 96.4001 13.9C95.7001 13.9 95.1001 14.1 94.5001 14.4C93.9001 14.7 93.5001 15.2 93.1001 15.8C92.7001 16.4 92.6001 17.2 92.6001 18C92.6001 18.9 92.8001 19.6 93.1001 20.3C93.5001 20.9 93.9001 21.4 94.5001 21.8C95.1001 22.1 95.7001 22.3 96.4001 22.3C97.1001 22.3 97.7001 22.1 98.3001 21.8C98.9001 21.5 99.4001 21 99.7001 20.3C100 19.6 100.2 18.9 100.2 18C100.2 17.1 100 16.6 99.7001 15.9Z" fill="white"/>
<path d="M0 8.4C0 3.8 3.8 0 8.4 0H23.6C28.2 0 32 3.8 32 8.4V23.6C32 28.3 28.2 32 23.6 32H8.4C3.8 32 0 28.2 0 23.6V8.4Z" fill="#2C473E"/>
<path d="M25.7001 11.2C25.7001 11.9 25.2 12.4 24.5 12.4C23.8 12.4 23.3 11.9 23.3 11.2C23.3 10.5 23.8 10 24.5 10C25.2 10 25.7001 10.5 25.7001 11.2Z" fill="#B0D182"/>
<path d="M20.9001 11.8C20.8001 12 20.7001 12.3 20.5001 12.5C20.2001 12.9 19.7001 13.3 19.0001 13.7C18.8001 13.8 18.5001 13.9 18.3001 14C15.0001 15.4 10.9001 16.6 8.7001 18.1C8.5001 18 8.4001 17.9 8.3001 17.8C8.3001 17.8 8.2001 17.8 8.2001 17.7C8.1001 17.6 8.0001 17.5 7.8001 17.4C7.7001 17.3 7.7001 17.3 7.6001 17.2C7.7001 17 7.7001 16.9 7.8001 16.7C7.8001 16.7 7.8001 16.7 7.8001 16.6C7.9001 16.4 8.0001 16.3 8.2001 16.1C8.4001 15.9 8.7001 15.6 9.0001 15.5C9.1001 15.4 9.2001 15.4 9.3001 15.3C10.4001 14.7 11.5001 14.4 12.6001 14C13.7001 13.6 14.9001 13.2 16.0001 12.7C16.2001 12.6 16.3001 12.6 16.5001 12.5C17.1001 12.2 17.7001 12 18.3001 11.7C18.5001 11.6 18.8001 11.5 19.0001 11.3C19.3001 11.1 19.5001 11 19.8001 10.8C19.8001 10.8 19.8001 10.8 19.9001 10.8C20.3001 10.5 20.6001 10.1 20.9001 9.79999C20.9001 9.99999 20.9001 10.2 20.9001 10.4C20.9001 10.8 20.9001 11.3 20.9001 11.8Z" fill="#94999D"/>
<path d="M7.9001 19.8C7.8001 19.6 7.7001 19.5 7.6001 19.3C7.7001 19.5 7.8001 19.7 7.9001 19.8Z" fill="#FEFFFE"/>
<path d="M20.9001 11.8C20.9001 11.6 20.6001 11.4 20.5001 11.3C20.3001 11.1 20.1001 10.9 19.8001 10.7C18.4001 9.6 16.6001 9 14.9001 8.3C14.2001 8 13.4001 7.8 12.7001 7.5C11.7001 7.1 11.9001 5.6 13.0001 5.5C13.2001 5.5 13.5001 5.5 13.7001 5.6C15.4001 6.1 17.1001 6.8 18.8001 7.6C19.4001 7.9 19.9001 8.2 20.4001 8.6C20.6001 8.8 20.8001 9.1 20.9001 9.3C21.0001 9.4 21.0001 9.5 21.0001 9.7C21.0001 9.9 21.0001 10.1 21.0001 10.3C20.9001 10.8 20.9001 11.3 20.9001 11.8Z" fill="#FEFFFE"/>
<path d="M20.9 14.4V14.5C20.9 14.7 20.9 15 20.9 15.1V15.2C20.6 15.9 19.8 16.7 18.3 17.4C16.3 18.3 13.9 19.1 11.9 19.9C11 20.3 10.1 20.7 9.4 21.1C9.1 21.3 8.8 21.5 8.5 21.7C8.1 22 7.8 22.3 7.5 22.6C7.5 22.4 7.5 22.3 7.5 22.1C7.5 21.6 7.5 21.2 7.5 20.7C7.5 20.5 7.6 20.3 7.8 20C7.8 19.9 7.9 19.9 7.9 19.8C8.2 19.4 8.6 19.1 9 18.9C9.1 18.8 9.2 18.8 9.3 18.7C10.3 18.1 11.5 17.8 12.6 17.4C13.7 17 14.9 16.6 16 16.1C16.8 15.8 17.6 15.4 18.3 15.1C18.8 14.8 19.3 14.6 19.7 14.3C19.7 14.3 19.8 14.3 19.8 14.2C20.2 13.9 20.5 13.6 20.8 13.2V13.3C20.9 13.5 20.9 13.7 20.9 13.8V13.9C21 14 21 14.2 20.9 14.4Z" fill="#6A8E4E"/>
<path d="M20.9001 14.4V14.5C20.9001 14.8 20.9001 15 20.9001 15.1V15.2C20.8001 15 20.7001 15 20.6001 14.9C20.3001 14.6 20.0001 14.4 19.7001 14.2C19.5001 14 19.2001 13.9 19.0001 13.7C18.8001 13.6 18.6001 13.5 18.4001 13.4C17.8001 13.1 17.1001 12.8 16.5001 12.5C15.4001 12 14.3001 11.6 13.2001 11.2C11.7001 10.6 10.1001 10.1 8.50008 9.60001C8.10008 9.40001 7.80008 9.30001 7.70008 9.10001C7.40008 8.80001 7.40008 8.40001 7.60008 8.00001C7.80008 7.50001 8.30008 7.30001 9.00008 7.50001C10.7001 8.10001 12.4001 8.60001 14.2001 9.30001C15.8001 9.90001 17.5001 10.5 19.1001 11.3C19.2001 11.4 19.3001 11.4 19.4001 11.5C19.5001 11.5 19.5001 11.6 19.6001 11.6C20.0001 11.8 20.3001 12.1 20.6001 12.5C20.7001 12.7 20.9001 12.9 20.9001 13.1V13.2C21.0001 13.4 21.0001 13.6 21.0001 13.7V13.8C21.0001 14 21.0001 14.2 20.9001 14.4Z" fill="#B0D182"/>
<path d="M25.6 25.2V25.4C25.6 25.5 25.5 25.7 25.5 25.8C25.3 26.2 25 26.4 24.6 26.4C24.4 26.4 24.3 26.4 24.1 26.3C23.9 26.2 23.7 26.2 23.4 26.1H23.3C20.9 25.3 15.8 23.8 14.3 23.2C12.6 22.6 10.9 22 9.39996 21.1C9.29996 21.1 9.29996 21 9.19996 21C9.09996 21 9.09996 20.9 8.99996 20.9C8.59996 20.6 8.29996 20.3 7.99996 20C7.99996 20 7.99996 19.9 7.89996 19.9C7.89996 19.9 7.89996 19.9 7.89996 19.8C7.79996 19.7 7.79996 19.6 7.69996 19.4C7.49996 18.9 7.19996 18.1 7.49996 17.3C7.59996 17.4 7.59996 17.4 7.69996 17.5C7.79996 17.6 7.99996 17.8 8.09996 17.8C8.09996 17.8 8.19996 17.8 8.19996 17.9C8.29996 18 8.49996 18.1 8.59996 18.2C8.79996 18.4 9.09996 18.5 9.29996 18.7C9.49996 18.8 9.79996 19 9.99996 19.1C10.6 19.4 11.2 19.7 11.8 19.9C12.9 20.4 14 20.8 15.2 21.2C16.5 21.7 20.9 23.1 23.3 23.8H23.4C23.9 24 24.2 24.1 24.5 24.2C24.9 24.3 25.2 24.5 25.3 24.7C25.5 24.8 25.6 25 25.6 25.2Z" fill="#FEFFFE"/>
<path d="M15.5 26.9C15.3 26.9 15 26.9 14.8 26.8C13.1 26.3 11.4 25.6 9.7 24.8C9.1 24.5 8.6 24.2 8.1 23.8C7.9 23.6 7.7 23.3 7.6 23.1C7.5 22.9 7.5 22.8 7.5 22.6C7.5 22.4 7.5 22.3 7.5 22.1C7.5 21.6 7.5 21.2 7.5 20.7C7.5 20.8 7.8 21.1 7.9 21.2C8.1 21.4 8.3 21.5 8.5 21.7L8.6 21.8C10 22.9 11.8 23.5 13.5 24.2C14.2 24.5 15 24.7 15.7 25C16.7 25.2 16.6 26.8 15.5 26.9Z" fill="#B0D182"/>
<path d="M7.30005 8.00001L7.90005 10.2L9.20005 6.70001L7.30005 8.00001Z" fill="#B0D182"/>
<path d="M25.5999 14.1V25.3C25.5999 25.4 25.5999 25.4 25.5999 25.5C25.5999 25.6 25.4999 25.7 25.4999 25.8C25.2999 26.2 24.9999 26.4 24.5999 26.4C24.3999 26.4 24.2999 26.4 24.0999 26.3C23.6999 26.2 23.3999 25.8 23.3999 25.4V14.1C23.3999 13.6 23.7999 13.1 24.3999 13.1H24.6999C25.1999 13.2 25.5999 13.6 25.5999 14.1Z" fill="#FEFFFE"/>
<path d="M117.6 20.452L119.28 15.352H121.068L118.608 22H116.568L114.12 15.352H115.92L117.6 20.452ZM122.348 20.104C123.116 19.464 123.728 18.932 124.184 18.508C124.64 18.076 125.02 17.628 125.324 17.164C125.628 16.7 125.78 16.244 125.78 15.796C125.78 15.388 125.684 15.068 125.492 14.836C125.3 14.604 125.004 14.488 124.604 14.488C124.204 14.488 123.896 14.624 123.68 14.896C123.464 15.16 123.352 15.524 123.344 15.988H121.712C121.744 15.028 122.028 14.3 122.564 13.804C123.108 13.308 123.796 13.06 124.628 13.06C125.54 13.06 126.24 13.304 126.728 13.792C127.216 14.272 127.46 14.908 127.46 15.7C127.46 16.324 127.292 16.92 126.956 17.488C126.62 18.056 126.236 18.552 125.804 18.976C125.372 19.392 124.808 19.896 124.112 20.488H127.652V21.88H121.724V20.632L122.348 20.104ZM129.646 22.084C129.342 22.084 129.09 21.992 128.89 21.808C128.698 21.616 128.602 21.38 128.602 21.1C128.602 20.82 128.698 20.588 128.89 20.404C129.09 20.212 129.342 20.116 129.646 20.116C129.942 20.116 130.186 20.212 130.378 20.404C130.57 20.588 130.666 20.82 130.666 21.1C130.666 21.38 130.57 21.616 130.378 21.808C130.186 21.992 129.942 22.084 129.646 22.084ZM131.827 17.512C131.827 16.128 132.075 15.044 132.571 14.26C133.075 13.476 133.907 13.084 135.067 13.084C136.227 13.084 137.055 13.476 137.551 14.26C138.055 15.044 138.307 16.128 138.307 17.512C138.307 18.904 138.055 19.996 137.551 20.788C137.055 21.58 136.227 21.976 135.067 21.976C133.907 21.976 133.075 21.58 132.571 20.788C132.075 19.996 131.827 18.904 131.827 17.512ZM136.651 17.512C136.651 16.92 136.611 16.424 136.531 16.024C136.459 15.616 136.307 15.284 136.075 15.028C135.851 14.772 135.515 14.644 135.067 14.644C134.619 14.644 134.279 14.772 134.047 15.028C133.823 15.284 133.671 15.616 133.591 16.024C133.519 16.424 133.483 16.92 133.483 17.512C133.483 18.12 133.519 18.632 133.591 19.048C133.663 19.456 133.815 19.788 134.047 20.044C134.279 20.292 134.619 20.416 135.067 20.416C135.515 20.416 135.855 20.292 136.087 20.044C136.319 19.788 136.471 19.456 136.543 19.048C136.615 18.632 136.651 18.12 136.651 17.512Z" fill="black"/>
</svg>
