<?xml version="1.0" encoding="utf-8"?>
<!-- Generator: Adobe Illustrator 24.3.0, SVG Export Plug-In . SVG Version: 6.00 Build 0)  -->
<svg version="1.1" id="Layer_1" xmlns="http://www.w3.org/2000/svg" xmlns:xlink="http://www.w3.org/1999/xlink" x="0px" y="0px"
	 viewBox="0 0 32 32" style="enable-background:new 0 0 32 32;" xml:space="preserve">
<style type="text/css">
	.st0{fill:#3C50E0;}
	.st1{fill:#FDFEFD;}
	.st2{fill:#93989C;}
</style>
<path class="st0" d="M0,8.5c0-4.6,3.8-8.4,8.4-8.4h15.2c4.6,0,8.4,3.8,8.4,8.4v15.2c0,4.7-3.8,8.4-8.4,8.4H8.4
	c-4.6,0-8.4-3.8-8.4-8.4V8.5z"/>
<g>
	<path class="st1" d="M8.6,19.9c-0.3-0.6-0.5-1.2-0.5-1.8c0-0.2,0.1-0.5,0.1-0.7c0.2-0.1,0.2,0.1,0.3,0.2c0.3,0.3,0.6,0.5,0.9,0.8
		c0.2,0.2,0.4,0.3,0.6,0.4c0.7,0.4,1.4,0.7,2.1,1c0.2,0.1,0.4,0.1,0.5,0.3c0.5,0.3,1.1,0.5,1.6,0.7c1.4,0.6,2.9,1,4.3,1.5
		c1.7,0.5,3.3,1.1,5,1.6c0-0.4,0-0.8,0-1.2c0-2.7,0-5.4,0-8.1c0-0.6,0.4-0.9,1-1c0.4,0,0.8,0,1.1,0.5c0.1,0.1,0.1,0.3,0.1,0.5
		c0,3.6,0,7.1,0,10.7c0,0.9-0.6,1.3-1.4,1.1c-1.6-0.5-3.2-1-4.8-1.5c-1.6-0.5-3.3-1-4.9-1.6c-1.4-0.5-2.8-1-4.2-1.7
		c-0.1-0.1-0.3-0.1-0.4-0.2C9.4,21,8.9,20.6,8.6,19.9z"/>
	<path class="st1" d="M20.9,13.4c0.3,0.4,0.4,0.9,0.4,1.4c0,0.4,0,0.8-0.1,1.3c-0.2,0.1-0.2-0.1-0.3-0.1c-0.3-0.3-0.6-0.5-1-0.8
		c-0.2-0.2-0.5-0.3-0.7-0.4c-0.7-0.4-1.4-0.7-2.1-1c-0.1-0.1-0.2-0.1-0.3-0.2c-2.4-1-4.9-1.9-7.4-2.7c-0.2-0.1-0.3-0.2-0.4-0.1
		c-0.1,0.1-0.1,0.3-0.2,0.4c0,0.1,0,0.2-0.1,0.2c-0.1,0-0.1-0.2-0.1-0.3c-0.1-0.6-0.3-1.2-0.5-1.8C8.1,9.1,8,9,8.1,9
		c0.6-0.4,1.2-0.8,1.8-1.2c0,0,0.1,0,0.1,0C10,8,10,8.1,9.9,8.2c-0.2,0.3,0,0.3,0.2,0.4c2.5,0.8,5,1.7,7.4,2.6
		c0.7,0.2,1.3,0.6,1.9,0.9c0.6,0.2,1,0.5,1.4,0.9C20.8,13.1,20.9,13.2,20.9,13.4z"/>
	<path class="st2" d="M16.8,13.4c0.8,0.4,1.7,0.7,2.5,1.2c0,0.3-0.3,0.3-0.5,0.4c-1.1,0.5-2.2,0.9-3.3,1.3c-1.4,0.5-2.8,1-4.1,1.6
		c-0.5,0.2-1,0.5-1.5,0.8c-0.1,0.1-0.3,0.2-0.4,0.1c-0.4-0.2-0.7-0.5-1-0.7c-0.1-0.1-0.2-0.2-0.3-0.3c0.4-1.1,1.3-1.6,2.3-2
		C12.6,14.9,14.8,14.3,16.8,13.4z"/>
	<path class="st2" d="M20,15c0.4,0.2,0.7,0.5,1,0.7c0.1,0.1,0.2,0.2,0.3,0.3c-0.2,0.6-0.6,1-1.1,1.3c-1,0.7-2.1,1.1-3.2,1.5
		c-1.4,0.6-2.8,1.1-4.2,1.6c0,0,0,0,0,0c-0.4-0.1-0.8-0.3-1.2-0.5c-0.5-0.2-1-0.4-1.4-0.7c0-0.2,0.2-0.2,0.4-0.3
		c1.2-0.5,2.5-0.9,3.7-1.4c1.8-0.7,3.5-1.3,5.2-2.3C19.5,15.1,19.7,14.9,20,15z"/>
	<path class="st1" d="M20.1,11.6c-1-0.8-2.2-1.3-3.4-1.8c-1.1-0.4-2.3-0.8-3.5-1.3c-0.4-0.2-0.6-0.4-0.6-0.8c0-0.5,0-0.9,0.6-1.1
		c0.3-0.1,0.6-0.1,0.9,0c1.4,0.4,2.8,0.9,4.1,1.5c0.7,0.3,1.4,0.6,2,1c0.8,0.5,1.2,1.2,1.1,2.1c0,0.5,0,0.9,0,1.4
		c-0.2,0-0.3-0.2-0.4-0.3C20.6,12.2,20.3,12,20.1,11.6z"/>
	<path class="st1" d="M9.4,22.1c1.3,1.1,2.9,1.6,4.5,2.2c0.8,0.3,1.7,0.6,2.5,0.9c0.4,0.1,0.6,0.7,0.6,1.1c-0.2,0.7-0.5,0.9-1,0.9
		c-0.7,0-1.2-0.3-1.8-0.5C13,26.4,12,25.9,11,25.4c-0.6-0.3-1.1-0.5-1.6-0.9c-0.7-0.5-1.1-1.1-1.1-2c0-0.5,0-1,0-1.4
		c0.1-0.1,0.1,0,0.2,0c0.3,0.3,0.5,0.5,0.8,0.8C9.3,22,9.4,22,9.4,22.1z"/>
	<path class="st1" d="M23.6,12.1c-0.1-0.7,0.6-1.2,1.1-1.2c0.7,0,1.2,0.5,1.2,1.2c0,0.7-0.5,1.2-1.2,1.2
		C24.1,13.3,23.5,12.8,23.6,12.1z"/>
	<path class="st2" d="M20.1,11.6c0.4,0.3,0.8,0.7,1.2,1c-0.1,0.2-0.2,0.5-0.4,0.7c-0.4-0.5-1-0.9-1.5-1.2
		C19.7,12,19.9,11.8,20.1,11.6z"/>
	<path class="st2" d="M9.4,22.1c-0.4-0.3-0.7-0.7-1.1-1c0.1-0.3,0.2-0.5,0.3-0.8c0.4,0.5,0.9,1,1.5,1.3C9.8,21.7,9.6,21.9,9.4,22.1z
		"/>
</g>
</svg>
